<?xml version="1.0" standalone="no"?>
<!DOCTYPE svg PUBLIC "-//W3C//DTD SVG 20010904//EN"
 "http://www.w3.org/TR/2001/REC-SVG-20010904/DTD/svg10.dtd">
<svg version="1.0" xmlns="http://www.w3.org/2000/svg"
 width="534.000000pt" height="534.000000pt" viewBox="0 0 534.000000 534.000000"
 preserveAspectRatio="xMidYMid meet">
<metadata>
Created by potrace 1.14, written by Peter Selinger 2001-2017
</metadata>
<g transform="translate(0.000000,534.000000) scale(0.100000,-0.100000)"
fill="#000000" stroke="none">
<path d="M2810 4055 l0 -1161 220 -1 c121 0 220 3 221 6 0 3 2 281 3 616 2
336 4 611 5 612 1 2 750 -751 1260 -1265 l191 -193 -532 -536 c-293 -294 -620
-623 -726 -729 -106 -107 -194 -194 -195 -194 -2 0 -3 269 -3 598 1 328 0 606
-2 617 -3 20 -11 20 -223 20 l-219 0 0 -1161 0 -1162 469 471 c258 260 627
632 821 827 194 195 552 556 797 802 l445 448 -510 512 c-281 282 -673 677
-872 878 -199 201 -539 543 -756 761 l-394 396 0 -1162z"/>
<path d="M2143 4828 c-932 -936 -1063 -1070 -1064 -1091 -1 -12 -2 -206 -3
-432 l-1 -410 -138 -1 -137 -1 0 56 c-1 31 -1 162 -1 291 l0 235 -400 -403
-400 -403 397 -400 c219 -219 399 -399 401 -399 1 0 3 116 2 257 0 142 0 272
1 288 l0 30 132 0 c73 1 135 -2 138 -6 3 -4 5 -198 5 -430 l0 -422 222 -226
223 -225 1 39 c0 22 1 317 2 655 l2 615 281 1 280 0 0 -928 c-1 -511 1 -935 4
-943 3 -8 103 -113 223 -234 l217 -219 0 2544 c0 1399 -1 2544 -3 2544 -2 0
-175 -172 -384 -382z m-58 -1310 c-1 -337 -3 -616 -3 -619 -1 -3 -127 -5 -279
-5 l-278 1 -1 336 -1 336 276 281 c152 154 279 281 282 281 3 1 5 -275 4 -611z"/>
</g>
</svg>
